<svg width="151" height="9" viewBox="0 0 151 9" fill="none" xmlns="http://www.w3.org/2000/svg">
<path d="M1.69225 0.816212C1.00191 0.819772 0.445155 1.38229 0.448715 2.07264C0.452274 2.76299 1.0148 3.31974 1.70514 3.31618L1.69225 0.816212ZM149.484 2.358L149.527 3.60724C150.206 3.58352 150.742 3.02149 150.733 2.34193C150.725 1.66237 150.175 1.1143 149.495 1.10805L149.484 2.358ZM41.8819 7.01261L41.6146 5.79153C40.9892 5.92845 40.5683 6.51587 40.6398 7.15216C40.7112 7.78845 41.252 8.26785 41.8922 8.26257L41.8819 7.01261ZM113.748 8.92309C114.439 8.92944 115.004 8.37496 115.01 7.68463C115.016 6.9943 114.462 6.42954 113.771 6.4232L113.748 8.92309ZM76.0254 1.68295L76.0369 0.432999L76.028 0.432917L76.019 0.432963L76.0254 1.68295ZM149.44 1.10876C129.493 1.8053 105.853 2.26527 85.5023 2.90509C75.3423 3.22453 66.0161 3.58854 58.4234 4.04888C50.8619 4.50734 44.9305 5.06566 41.6146 5.79153L42.1492 8.2337C45.2465 7.55569 50.9881 7.00428 58.5747 6.5443C66.1303 6.08621 75.4274 5.72309 85.5808 5.40386C105.857 4.76637 129.605 4.3029 149.527 3.60724L149.44 1.10876ZM41.8922 8.26257C71.1846 8.02113 95.3921 8.7544 113.748 8.92309L113.771 6.4232C95.485 6.25515 71.1876 5.52102 41.8716 5.76265L41.8922 8.26257ZM1.70514 3.31618L76.0319 2.93293L76.019 0.432963L1.69225 0.816212L1.70514 3.31618ZM76.0139 2.93289L149.472 3.60795L149.495 1.10805L76.0369 0.432999L76.0139 2.93289Z" fill="#207DE9"/>
</svg>
